<svg version="1.1" xmlns="http://www.w3.org/2000/svg" style="display: block;" viewBox="350 340 1300 460" width="1300" height="460" preserveAspectRatio="xMidYMid meet">
<path transform="translate(0,0)" fill="rgb(251,251,251)" d="M 1340.84 448.062 C 1398.89 442.199 1450.71 484.476 1456.62 542.517 C 1462.53 600.557 1420.29 652.409 1362.25 658.364 C 1304.15 664.326 1252.23 622.033 1246.31 563.927 C 1240.4 505.821 1282.73 453.931 1340.84 448.062 z"/>
<path transform="translate(0,0)" fill="none" d="M 1344.68 478.397 C 1358.97 477.05 1372.74 480.681 1384.93 488.187 C 1402.51 499.164 1415 516.701 1419.62 536.913 C 1423.93 556.53 1420.24 577.055 1409.38 593.952 C 1397.49 612.719 1381.18 623.358 1359.79 628.104 C 1341.99 628.666 1329.2 626.312 1314.06 615.667 C 1297.28 603.868 1285.92 585.851 1282.5 565.628 C 1279.09 545.713 1283.72 525.259 1295.38 508.753 C 1307.71 491.34 1323.67 481.985 1344.68 478.397 z"/>
<path transform="translate(0,0)" fill="rgb(251,251,251)" d="M 1181.65 449.602 L 1214.91 449.638 L 1214.79 660.864 L 1181.88 660.755 L 1181.92 542.75 L 1181.88 501.142 C 1154.74 533.417 1128.46 566.745 1100.96 598.583 C 1076.45 568.192 1052.12 537.645 1027.99 506.946 C 1028.83 524.913 1028.5 545.535 1028.58 563.707 L 1029.07 660.733 L 995.865 660.766 L 995.534 449.838 L 1025.34 449.814 C 1051.63 481.927 1077.64 515.787 1103.32 548.485 L 1181.65 449.602 z"/>
<path transform="translate(0,0)" fill="rgb(251,251,251)" d="M 808.029 447.849 L 854.356 447.611 C 883.422 447.498 909.718 445.799 934.352 464.527 C 963.529 486.709 966.917 531.333 944.518 559.395 C 929.63 578.047 909.979 584.703 887.251 587.035 C 871.905 587.76 856.244 587.355 840.868 587.145 L 840.827 660.796 L 808.03 660.734 C 807.207 590.352 808.018 518.324 808.029 447.849 z"/>
<path transform="translate(0,0)" fill="none" d="M 840.845 479.681 C 862.972 479.495 896.779 475.86 913.714 490.677 C 929.193 504.219 927.35 528.092 914.404 542.715 C 895.401 558.974 865.94 554.837 840.848 554.617 L 840.845 479.681 z"/>
<path transform="translate(0,0)" fill="rgb(251,251,251)" d="M 1536.94 443.247 C 1566.74 439.969 1589 446.567 1614.44 461.195 C 1610.5 471.68 1606.49 482.137 1602.4 492.565 C 1581.22 480.643 1544.22 465.658 1521.85 484.318 C 1516.95 488.41 1514.14 496.796 1514.44 503.181 C 1515.25 520.858 1539.05 526.551 1552.69 531.4 C 1574.03 538.988 1597.05 543.45 1613.86 559.882 C 1635.86 581.376 1633.14 622.43 1611.05 642.905 C 1592.43 660.167 1569.88 663.384 1545.7 662.558 C 1515.02 660.139 1496.82 651.335 1470.3 636.313 C 1474.29 626.48 1479.68 615.288 1484.1 605.499 C 1508.89 620.573 1536.89 632.055 1566.33 627.92 C 1580.92 625.871 1598.17 610.09 1592.82 595.713 C 1582.08 566.824 1527.41 567.884 1504.4 549.526 C 1491.19 538.993 1482.84 530.632 1479.71 513.452 C 1473.56 473.546 1500.13 449.514 1536.94 443.247 z"/>
<path transform="translate(0,0)" fill="rgb(251,251,251)" d="M 567.169 374.962 C 577.609 379.537 607.379 397.179 618.502 403.358 C 655.858 423.803 692.93 444.765 729.706 466.236 C 708.006 478.705 682.776 491.082 660.249 502.467 C 648.529 497.226 622.506 481.794 610.347 475.075 L 497.223 411.832 C 519.944 399.328 544.148 387.157 567.169 374.962 z"/>
<path transform="translate(0,0)" fill="rgb(251,251,251)" d="M 726.93 497.099 C 728.15 499.296 727.748 637.057 727.781 651.355 C 710.522 660.446 693.117 669.257 675.574 677.786 C 675.466 656.502 676.394 634.164 675.387 612.868 C 675.221 609.368 673.813 608.904 671.419 606.993 C 647.028 592.633 620.965 579.244 596.213 564.911 C 609.714 556.493 630.703 546.253 645.209 538.874 C 672.539 525.125 699.78 511.2 726.93 497.099 z"/>
<path transform="translate(0,0)" fill="rgb(251,251,251)" d="M 469.561 426.094 C 522.617 456.829 578.202 485.923 631.691 516.431 C 611.371 527.756 589.357 537.536 568.541 549.062 C 562.964 548.426 421.996 468.979 405.868 459.669 C 426.164 448.094 448.706 436.899 469.561 426.094 z"/>
<path transform="translate(0,0)" fill="rgb(251,251,251)" d="M 553.501 583.847 L 555.256 584.198 C 557.115 589.681 555.375 706.738 555.331 723.175 C 530.882 711.52 496.71 691.435 472.504 677.974 C 455.842 668.626 439.021 659.713 422.473 650.135 C 465.317 629.447 510.465 605.33 553.501 583.847 z"/>
<path transform="translate(0,0)" fill="rgb(251,251,251)" d="M 582.404 588.241 C 598.158 594.792 633.047 615.122 649.101 623.914 L 649.079 692.208 L 627.89 703.225 L 582.382 726.141 C 580.88 683.323 582.066 631.52 582.404 588.241 z"/>
<path transform="translate(0,0)" fill="rgb(251,251,251)" d="M 406.699 491.041 C 420.512 497.122 441.414 509.315 455.111 516.865 L 537.875 562.792 C 531.696 566.371 522.341 570.717 515.758 574.025 L 475.983 593.829 C 456.076 581.494 427.453 566.588 406.532 555.078 C 406.334 535.712 405.655 509.983 406.699 491.041 z"/>
<path transform="translate(0,0)" fill="rgb(251,251,251)" d="M 406.82 586.975 C 415.597 590.537 437.597 603.514 446.347 608.527 L 431.24 616.231 C 422.845 620.5 415.019 624.119 406.419 627.974 C 406.356 614.307 406.489 600.639 406.82 586.975 z"/>
</svg>
